<svg xmlns="http://www.w3.org/2000/svg" xmlns:xlink="http://www.w3.org/1999/xlink" version="1.1" x="0px" y="0px" viewBox="0 0 30 37.5" xml:space="preserve"><g transform="translate(-390 -200)"><g xmlns="http://www.w3.org/2000/svg" xmlns:xlink="http://www.w3.org/1999/xlink"><rect x="406" y="206" width="1" height="2"/><path d="M392,220v-18h10v-1h-11v20h11v-0.049c-0.527-0.273-1.035-0.592-1.521-0.951H392z"/><polygon points="403,201 403,204 407,205   "/><path d="M404,210h10v-1h-11v6.436c0.321,0.121,0.654,0.227,1,0.313V210z"/><path d="M418,228h-14v-6.27c-0.338-0.088-0.67-0.199-1-0.327V229h16v-15h-1V228z"/><polygon points="415,209 415,212 419,213   "/><path d="M406,221c0,0.516,0,3,0,3l6-5l-6-5v3c-5.6,0-9-5-9-5C397,216.363,401.52,221,406,221z"/></g></g><text x="0" y="45" fill="#000000" font-size="5px" font-weight="bold" font-family="'Helvetica Neue', Helvetica, Arial-Unicode, Arial, Sans-serif">Created by Hea Poh Lin</text><text x="0" y="50" fill="#000000" font-size="5px" font-weight="bold" font-family="'Helvetica Neue', Helvetica, Arial-Unicode, Arial, Sans-serif">from the Noun Project</text></svg>