<?xml version="1.0" encoding="utf-8"?><svg version="1.1" id="Layer_1" xmlns="http://www.w3.org/2000/svg" xmlns:xlink="http://www.w3.org/1999/xlink" x="0px" y="0px" viewBox="0 0 105.47 122.88" style="enable-background:new 0 0 105.47 122.88" xml:space="preserve"><g><path d="M32.72,0.72C33.2,0.29,33.88,0,34.55,0c0.14,0,0.29,0,0.43,0.05l47.31,0c1.64,0,3.19,0.68,4.3,1.79 c1.11,1.11,1.79,2.61,1.79,4.3v26.95h-5.41V6.14c0-0.19-0.05-0.34-0.19-0.43c-0.1-0.1-0.24-0.19-0.43-0.19H37.36h-0.05v23.83 c0,2.27-0.92,4.35-2.42,5.85c-1.5,1.5-3.58,2.42-5.85,2.42H5.65v79.19c0,0.15,0.05,0.34,0.19,0.43c0.1,0.1,0.24,0.19,0.43,0.19 c24.57,0,52.17,0,76.06,0c0.15,0,0.34-0.05,0.43-0.19c0.1-0.1,0.19-0.29,0.19-0.43V88.77h5.41l0,28.02c0,1.69-0.68,3.19-1.79,4.3 c-1.11,1.11-2.61,1.79-4.3,1.79c-31.03,0-45.23,0-76.11,0c-1.69,0-3.19-0.68-4.3-1.79c-1.11-1.11-1.79-2.61-1.79-4.3V35.52 C0.05,35.28,0,35.09,0,34.84c0-0.82,0.39-1.55,0.92-2.08L32.38,0.92c0.1-0.1,0.15-0.14,0.24-0.19H32.72L32.72,0.72z M95.98,63.98 H57.33v-6.04h38.61L83.83,44.07c-1.09-1.23-0.98-3.12,0.25-4.21c1.23-1.09,3.09-0.98,4.18,0.25l16.46,18.85 c1.02,1.16,0.98,2.88-0.04,4L88.26,81.77c-1.09,1.23-2.95,1.37-4.18,0.25c-1.23-1.09-1.33-2.98-0.25-4.21l12.11-13.87L95.98,63.98 L95.98,63.98z M31.85,29.34V9.38L9.38,32.14h19.67c0.77,0,1.45-0.34,1.98-0.82C31.51,30.83,31.85,30.11,31.85,29.34L31.85,29.34z"/></g></svg>