<?xml version="1.0" encoding="utf-8"?><svg version="1.1" id="Layer_1" xmlns="http://www.w3.org/2000/svg" xmlns:xlink="http://www.w3.org/1999/xlink" x="0px" y="0px" viewBox="0 0 97.71 122.88" style="enable-background:new 0 0 97.71 122.88" xml:space="preserve"><g><path d="M65.69,0.71C65.22,0.28,64.56,0,63.89,0c-0.14,0-0.28,0-0.43,0.05l-57.51,0c-1.61,0-3.12,0.66-4.21,1.75 C0.66,2.89,0,4.35,0,6.01v110.91c0,1.66,0.66,3.12,1.75,4.21c1.09,1.09,2.55,1.75,4.21,1.75c30.37,0,55.48,0,85.7,0 c1.66,0,3.12-0.66,4.21-1.75c1.09-1.09,1.75-2.55,1.75-4.21V34.76c0.05-0.24,0.09-0.43,0.09-0.66c0-0.8-0.38-1.51-0.9-2.03 L66.02,0.9c-0.09-0.09-0.14-0.14-0.24-0.19H65.69L65.69,0.71z M65.08,48.99c-0.62-0.58-1.33-0.89-2.13-0.84 c-0.8,0-1.51,0.31-2.09,0.93l-4.7,4.88L69.34,66.7l4.75-4.97c0.58-0.58,0.8-1.33,0.8-2.13c0-0.8-0.31-1.55-0.89-2.09L65.08,48.99 L65.08,48.99L65.08,48.99z M40.4,96.74c-1.73,0.58-3.51,1.11-5.24,1.69c-1.73,0.58-3.46,1.15-5.24,1.73 c-4.13,1.33-6.39,2.09-6.88,2.22c-0.49,0.13-0.18-1.77,0.84-5.77l3.28-12.56l0.27-0.28L40.4,96.74L40.4,96.74L40.4,96.74 L40.4,96.74z M32.24,78.78l20.35-21.13l13.18,12.69L45.2,91.74L32.24,78.78L32.24,78.78z M61.2,5.39v23.32 c0,2.22,0.9,4.26,2.36,5.72c1.47,1.47,3.5,2.36,5.72,2.36h22.89v80.12c0,0.14-0.05,0.33-0.19,0.43c-0.09,0.09-0.24,0.19-0.43,0.19 c-24.04,0-62.27,0-85.65,0c-0.14,0-0.33-0.05-0.43-0.19c-0.09-0.09-0.19-0.28-0.19-0.43V6.01c0-0.19,0.05-0.33,0.19-0.43 c0.09-0.09,0.24-0.19,0.43-0.19h55.24H61.2L61.2,5.39z M66.54,28.71V9.18l21.99,22.28H69.29c-0.76,0-1.42-0.33-1.94-0.8 C66.87,30.17,66.54,29.47,66.54,28.71L66.54,28.71L66.54,28.71z"/></g></svg>